<svg width="121" height="33" viewBox="0 0 121 33" fill="none" xmlns="http://www.w3.org/2000/svg">
<path d="M118.984 12.0855C118.362 11.4683 117.628 10.9793 116.799 10.6345C115.969 10.2791 115.075 10.1001 114.139 10.1001C113.271 10.1001 112.423 10.2551 111.621 10.5651C110.827 10.8643 110.107 11.2999 109.477 11.8611L109.269 12.0455L107.824 10.4074H107.234V23.8245C107.234 24.7785 108.028 25.5561 109.002 25.5561C109.976 25.5561 110.77 24.7785 110.77 23.8245V16.8608C110.77 16.4145 110.857 15.9896 111.032 15.5968C111.204 15.1986 111.444 14.8432 111.746 14.5466C112.049 14.25 112.409 14.0149 112.821 13.8438C113.233 13.6755 113.675 13.5873 114.139 13.5873C114.592 13.5873 115.025 13.6728 115.429 13.8438C115.827 14.0122 116.185 14.25 116.485 14.544C116.788 14.8406 117.028 15.1933 117.202 15.5968C117.374 15.9896 117.464 16.4145 117.464 16.8581V23.8245C117.464 24.7785 118.258 25.5561 119.232 25.5561C120.206 25.5561 121 24.7785 121 23.8245V16.8608C121 15.9362 120.817 15.0544 120.454 14.2447C120.097 13.4163 119.603 12.6921 118.984 12.0855Z" fill="black"/>
<path d="M99.8824 11.2652C99.4678 10.9712 99.0231 10.7147 98.5621 10.4956C98.1011 10.2791 97.621 10.1081 97.1326 9.98521C96.6498 9.86496 96.1533 9.8035 95.6595 9.8035C94.5738 9.8035 93.5399 10.0039 92.5797 10.3967C91.6303 10.7815 90.7847 11.3347 90.0645 12.0375C89.3552 12.7402 88.7878 13.598 88.3759 14.5867C87.9612 15.5648 87.7539 16.6604 87.7539 17.8388C87.7539 19.1054 87.964 20.2491 88.3759 21.2378C88.7878 22.2239 89.3552 23.071 90.0645 23.755C90.7792 24.4284 91.6249 24.9522 92.5715 25.3076C93.5317 25.6657 94.5711 25.8474 95.6595 25.8474C96.1506 25.8474 96.6416 25.7859 97.1163 25.6657C97.6046 25.5427 98.0874 25.3771 98.5512 25.1686C99.0122 24.9522 99.4541 24.6983 99.8688 24.4151C100.297 24.1211 100.704 23.8031 101.083 23.4691L101.309 23.2714L102.99 25.5534H103.565V10.4341H102.979L101.29 12.4169L101.08 12.2218C100.709 11.8798 100.308 11.5565 99.8824 11.2652ZM99.6478 19.5383C99.4269 20.0728 99.1186 20.5564 98.7312 20.9786C98.3411 21.3928 97.8747 21.7322 97.3509 21.9914C96.8244 22.2426 96.257 22.3708 95.6595 22.3708C95.0703 22.3708 94.5056 22.272 93.9764 22.0742C93.4526 21.8765 92.9889 21.5799 92.5933 21.1924C92.2087 20.8049 91.9004 20.3266 91.6794 19.7681C91.4585 19.2016 91.3466 18.5549 91.3466 17.8415C91.3466 17.128 91.4585 16.484 91.6794 15.9282C91.9004 15.3617 92.2059 14.878 92.5906 14.4905C92.9861 14.1031 93.4526 13.8064 93.9737 13.6087C94.5029 13.411 95.0676 13.3121 95.6568 13.3121C96.257 13.3121 96.8271 13.4457 97.3509 13.7076C97.8747 13.9534 98.3384 14.2955 98.7312 14.7177C99.1186 15.1265 99.4269 15.6129 99.6506 16.1607C99.8797 16.6951 99.9997 17.2616 99.9997 17.8415C99.997 18.4213 99.8797 18.9932 99.6478 19.5383Z" fill="black"/>
<path d="M81.7498 16.6737L84.8024 12.9166C85.1788 12.4543 85.2498 11.8344 84.9879 11.2999C84.726 10.7655 84.1859 10.4342 83.5803 10.4342C83.1001 10.4342 82.6527 10.6453 82.3554 11.0167L76.3348 18.4935V8.89764C76.3348 7.93565 75.5355 7.15002 74.5507 7.15002C73.5659 7.15002 72.7666 7.93298 72.7666 8.89764V24.196C72.7666 24.9469 73.3886 25.5561 74.1551 25.5561C74.5752 25.5561 74.9708 25.3717 75.2354 25.0511L76.3921 23.6482L79.4801 19.6372L82.3472 24.6716C82.6582 25.2167 83.2474 25.5561 83.8858 25.5561C84.5214 25.5561 85.0888 25.2355 85.408 24.6983C85.7272 24.1612 85.7299 23.5172 85.4162 22.9774L81.7498 16.6737Z" fill="black"/>
<path d="M67.4906 12.0107C66.7814 11.3079 65.9384 10.7601 64.9809 10.386C64.0289 10.0012 62.9922 9.8035 61.8983 9.8035C60.8153 9.8035 59.7787 10.0093 58.8212 10.4128C57.8718 10.8163 57.0262 11.3828 56.306 12.0989C55.5967 12.8044 55.0266 13.6568 54.6147 14.6348C54.2027 15.6129 53.9927 16.6924 53.9927 17.8415C53.9927 18.9718 54.2027 20.0407 54.6147 21.0187C55.0266 21.9887 55.5967 22.8411 56.3087 23.5573C57.0262 24.2601 57.8746 24.8293 58.8266 25.2408C59.7814 25.6443 60.818 25.8474 61.901 25.8474C62.995 25.8474 64.0289 25.6416 64.9782 25.2381C65.9384 24.8239 66.7841 24.2574 67.4934 23.552C68.2026 22.8385 68.7728 21.986 69.1847 21.016C69.5966 20.038 69.8067 18.9691 69.8067 17.8388C69.8067 16.631 69.5966 15.522 69.1847 14.544C68.7673 13.5579 68.1999 12.7055 67.4906 12.0107ZM65.8893 19.6853C65.6684 20.2411 65.3574 20.7248 64.9645 21.1203C64.5717 21.5157 64.1025 21.8257 63.5733 22.0448C63.055 22.264 62.4903 22.3735 61.8983 22.3735C61.3036 22.3735 60.7335 22.2586 60.2042 22.0288C59.6832 21.7883 59.2222 21.4623 58.8294 21.0588C58.4474 20.6526 58.1419 20.1716 57.9209 19.6265C57.7 19.0814 57.5881 18.4801 57.5881 17.8441C57.5881 17.1681 57.7 16.5481 57.9209 16.003C58.1419 15.4472 58.4474 14.9635 58.8294 14.5707C59.2222 14.1645 59.6887 13.8519 60.2097 13.6434C61.2654 13.2079 62.5339 13.2079 63.576 13.6461C64.1025 13.8519 64.5717 14.1645 64.9673 14.5707C65.3574 14.9635 65.6684 15.4472 65.8921 16.0057C66.1212 16.5481 66.2385 17.1681 66.2385 17.8468C66.2385 18.5068 66.1212 19.1268 65.8893 19.6853Z" fill="black"/>
<path d="M49.4207 7.15002C48.4387 7.15002 47.6367 7.93298 47.6367 8.89764V12.0829L47.1402 11.3748C46.941 11.0915 46.6928 10.8483 46.4036 10.6533C46.1063 10.4529 45.7816 10.2899 45.4352 10.1723C45.0887 10.0413 44.7314 9.94781 44.3631 9.8917C44.0003 9.83558 43.6402 9.80619 43.2992 9.80619C42.2162 9.80619 41.1796 10.0119 40.2221 10.4154C39.2727 10.819 38.4271 11.3855 37.7069 12.1016C36.9976 12.8151 36.4275 13.6729 36.0155 14.6509C35.6036 15.6262 35.3936 16.7005 35.3936 17.8415C35.3936 18.9905 35.6036 20.0701 36.0155 21.0481C36.4302 22.0181 36.9976 22.8706 37.7096 23.5867C38.4271 24.2895 39.2754 24.8533 40.2248 25.2568C41.1823 25.6496 42.2162 25.8501 43.3019 25.8501C43.7957 25.8501 44.284 25.7886 44.7587 25.6684C45.2497 25.5454 45.7325 25.3798 46.1936 25.1713C46.6546 24.9549 47.0992 24.701 47.5112 24.4178C47.9367 24.1238 48.3459 23.8058 48.7251 23.4718L48.9515 23.2741L50.632 25.5561H51.2076V8.89764C51.2048 7.93298 50.4055 7.15002 49.4207 7.15002ZM47.2902 19.541C47.0692 20.0754 46.761 20.5591 46.3736 20.9813C45.9835 21.3955 45.517 21.7349 44.9933 21.9941C44.4668 22.2453 43.8993 22.3735 43.3019 22.3735C42.7072 22.3735 42.1344 22.2506 41.6024 22.0128C41.0841 21.775 40.6231 21.4436 40.2302 21.0294C39.8483 20.6152 39.5455 20.1289 39.3246 19.5838C39.1036 19.036 38.9917 18.4507 38.9917 17.8442C38.9917 17.1494 39.1036 16.5161 39.3246 15.9603C39.5455 15.4018 39.8538 14.9234 40.2357 14.5386C40.6285 14.1432 41.0923 13.8359 41.6133 13.6274C42.1425 13.419 42.71 13.3148 43.3019 13.3148C43.9021 13.3148 44.4722 13.4484 44.996 13.7103C45.5198 13.9561 45.9835 14.2955 46.3763 14.7204C46.7637 15.1319 47.0747 15.6182 47.2957 16.1633C47.5275 16.6978 47.6448 17.2643 47.6448 17.8442C47.6394 18.4214 47.5221 18.9932 47.2902 19.541Z" fill="black"/>
<path d="M19.2189 15.7753C19.1961 21.4335 16.7824 27.275 11.7955 29.9323C8.28871 31.8107 0 33.2539 0 27.1376C0 27.1376 0 4.39018 0 4.36727C0 0.976926 2.8464 -0.145553 5.6928 0.014801C9.92824 0.243878 13.9815 2.23685 16.4408 5.90209C18.012 8.23868 18.8773 11.0563 19.1506 13.8969C19.1733 14.5383 19.2189 15.1568 19.2189 15.7753Z" fill="url(#paint0_linear_6701_1709)"/>
<path d="M27.0748 13.7822C26.5966 9.109 23.7502 5.19178 19.8107 2.83228C17.1921 1.25165 13.913 0.862221 12.2052 4.02349C12.2052 4.0464 0.705719 25.3048 0.705719 25.3048C-0.296213 27.1603 -0.0684996 28.6951 0.842348 29.955C2.20862 31.8335 4.91838 32.6811 7.12719 32.9101C9.1766 33.1392 11.2488 32.9101 13.2299 32.452C19.2187 31.0775 24.5244 26.977 26.3233 21.021C27.0292 18.6844 27.3252 16.2333 27.0748 13.7822Z" fill="url(#paint1_linear_6701_1709)"/>
<path d="M11.7952 29.9551C16.782 27.2749 19.1958 21.4334 19.2186 15.7981C19.2186 15.1796 19.1958 14.5611 19.1275 13.9426C18.877 11.102 17.9889 8.28439 16.4177 5.9478C15.5524 4.64206 14.4822 3.5654 13.2753 2.672C12.8882 3.01561 12.5238 3.47377 12.2278 4.04646C12.2278 4.06937 0.728367 25.3277 0.728367 25.3277C-0.0230824 26.7022 -0.068629 27.9163 0.318481 28.9701C0.318481 28.993 0.341254 29.0159 0.341254 29.0388C0.364025 29.0846 0.386793 29.1533 0.409564 29.1991C0.432336 29.245 0.432338 29.2679 0.45511 29.3137C0.45511 29.3366 0.477882 29.3595 0.477882 29.3595C2.27681 32.8415 8.78936 31.5586 11.7952 29.9551Z" fill="#E23B7B"/>
<defs>
<linearGradient id="paint0_linear_6701_1709" x1="9.56078" y1="9.3433" x2="9.56078" y2="19.2362" gradientUnits="userSpaceOnUse">
<stop stop-color="#7047EB"/>
<stop offset="1" stop-color="#A244FF"/>
</linearGradient>
<linearGradient id="paint1_linear_6701_1709" x1="22.9479" y1="5.07557" x2="9.27613" y2="31.4068" gradientUnits="userSpaceOnUse">
<stop stop-color="#FF9B53"/>
<stop offset="1" stop-color="#FF698F"/>
</linearGradient>
</defs>
</svg>
